# xmcd
#
# Track frame offsets:
#	150
#	12670
#	27637
#	42685
#	55007
#	67760
#	82372
#	94717
#	108042
#	123490
#	135442
#	150275
#	162532
#	181722
#
# Disc length: 2599
#
# Revision: 1
# Processed by: cddbd v1.5.1PL0 Copyright (c) Steve Scherf et al.
# Submitted via: VisiTrax 2.9.5.180 - For more info visit www.synapsa.com
# Normalized: r0:DSETVAR1
#
DISCID=b30a250e
DTITLE=Various Artist - Mr Music Country 9-02
DYEAR=2002
DGENRE=Country
TTITLE0=Keith Whitley - Pick Me Up On Your Way Down
TTITLE1=Dolly Parton - Tennessee Homesick Blues
TTITLE2=T. Jae Christian - I'd Be Better Off (In a Pine Box)
TTITLE3=Hank Snow - Hello Love
TTITLE4=Pam Tillis - Mi Vida Loca (MY Crazy Life)
TTITLE5=Porter Wagoner - The Cold Hard Facts Of Life
TTITLE6=Lorrie Morgan - What Part Of No
TTITLE7=Skeeter Davis - Bus Fare To Kentucky
TTITLE8=Kenny Chesney - When I Close My Eyes
TTITLE9=Dottie West and Jimmy Dean - Sweet Thang
TTITLE10=Billy O'Rourke - She's The Only Honky Tonk I Need
TTITLE11=Don Gibson - Just One Time
TTITLE12=Chip Taylor and Carrie Rodriguez - There's a Hole In The Midnight
TTITLE13=Heather Myles and Dwight Yoakam - Little Chapel
EXTD=
EXTT0=
EXTT1=
EXTT2=
EXTT3=
EXTT4=
EXTT5=
EXTT6=
EXTT7=
EXTT8=
EXTT9=
EXTT10=
EXTT11=
EXTT12=
EXTT13=
PLAYORDER=
